<svg width="507" height="507" version="1.1" xmlns="http://www.w3.org/2000/svg" xmlns:osb="http://www.openswatchbook.org/uri/2009/osb" xmlns:xlink="http://www.w3.org/1999/xlink">
 <defs></defs>
 <g transform="translate(983.5 -301.72)">
  <path d="m-646.47 559.87c2.6094 11.913 4.6445 26.204 4.0355 37.564 11.74-11.734 14.51-23.197 16.312-34.676 0 0 18.009 61.318-26.419 103.77 0 0 43.102 15.009 98.583-15.38-2.6933 13.081-6.8808 24.739-24.331 41.756 34.814-5.7064 85.19-59.886 90.153-96.185-11.072 14.429-28.036 29.53-39.327 34.698 80.546-88.102 30.411-208.58-63.682-267.6 7.967 44.632 19.986 80.876-8.5688 114.6 1.9373-9.1719 4.565-25.214-13.228-39.13 9.6998 23.374-9.2131 82.292-33.528 120.59z" fill="#5b529e" stroke-width="1.0089"/>
  <path d="m-976.03 709.22c73.076-32.027 139.16 53.659 208.99 61.617 30.592 3.4862 59.1 1.3441 80.672-6.2942-8.1029-3.2235-16.059-6.0309-24.664-10.679 62.452 6.6706 113.21-25.531 142.63-53.774-10.037 0.78545-20.078 1.4699-30.219-0.20941 11.035-6.5185 21.18-16.766 26.541-29.134-29.781 9.6055-59.879 14.774-96.765 1.2806 26.163-26.445 36.278-52.735 36.864-71.356-6.101 5.743-13.429 10.292-20.554 13.512 1.7452-14.668 0.90379-29.476-3.3456-45.419-31.883 47.826-68.706 76.725-107.29 89.991-61.226 21.05-151.41-37.048-212.86 50.465z" fill="#9a91d9" stroke-width="1.0089"/>
  <path d="m-886.22 755.5 160.18-298.29" fill="none" stroke="#5b529e" stroke-width="17.663"/>
  <g>
   <path d="m-744.42 491.53 29.014-55.749" fill="#5288bc" stroke="#9a91d9" stroke-width="26.495"/>
   <path d="m-643.61 309.82-58.602 55.347-65.653-40.573 29.538 70.858-64.769 57.185 85.991-11.86 35.486 78.407 11.447-91.341 77.829-6.5227-71.41-35.862z" fill="#9accf4"/>
   <path d="m-667.6 352.63c-2.7965-1.9745-29.728 41.978-29.728 41.978s-35.401-36.047-37.577-34.022c-2.1763 2.0244 30.948 39.967 30.948 39.967s-51.822 27.187-50.015 29.484c1.8063 2.2977 53.736-21.016 53.736-21.016s8.8255 57.431 12.053 57.004c3.2277-0.42667-2.6865-58.416-2.6865-58.416s50.62 8.4251 51.05 5.3801c0.42998-3.045-49.51-13.977-49.51-13.977s24.526-44.408 21.73-46.383z" fill="#9a91d9"/>
  </g>
 </g>
</svg>
